<svg width="1469" height="335" viewBox="0 0 1469 335" fill="none" xmlns="http://www.w3.org/2000/svg">
<path fill-rule="evenodd" clip-rule="evenodd" d="M0 30C0 13.4315 13.4315 0 30 0H305C321.569 0 335 13.4315 335 30V305C335 321.569 321.569 335 305 335H30C13.4315 335 0 321.569 0 305V30ZM183 68C183 51.4315 196.431 38 213 38H269C285.569 38 299 51.4315 299 68V124C299 140.569 285.569 154 269 154H213C196.431 154 183 140.569 183 124V68ZM213 184C196.431 184 183 197.431 183 214V270C183 286.569 196.431 300 213 300H269C285.569 300 299 286.569 299 270V214C299 197.431 285.569 184 269 184H213Z" fill="#2E43CD"/>
<path fill-rule="evenodd" clip-rule="evenodd" d="M400 0C383.431 0 370 13.4315 370 30V305C370 321.569 383.431 335 400 335H675C691.569 335 705 321.569 705 305V167.5V30C705 13.4315 691.569 0 675 0H400ZM432 42C420.954 42 412 50.9543 412 62V273C412 284.046 420.954 293 432 293H643C654.046 293 663 284.046 663 273V62C663 50.9543 654.046 42 643 42H432Z" fill="#F4DD2A"/>
<path fill-rule="evenodd" clip-rule="evenodd" d="M751 30C751 13.4315 764.431 0 781 0H1056C1072.57 0 1086 13.4315 1086 30V305C1086 321.569 1072.57 335 1056 335H781C764.431 335 751 321.569 751 305V30ZM934 68C934 51.4315 947.431 38 964 38H1020C1036.57 38 1050 51.4315 1050 68V124C1050 140.569 1036.57 154 1020 154H964C947.431 154 934 140.569 934 124V68ZM964 184C947.431 184 934 197.431 934 214V270C934 286.569 947.431 300 964 300H1020C1036.57 300 1050 286.569 1050 270V214C1050 197.431 1036.57 184 1020 184H964Z" fill="#F4DD2A"/>
<path fill-rule="evenodd" clip-rule="evenodd" d="M1163.5 0C1146.93 0 1133.5 13.4315 1133.5 30V305C1133.5 321.569 1146.93 335 1163.5 335H1438.5C1455.07 335 1468.5 321.569 1468.5 305V30C1468.5 13.4315 1455.07 0 1438.5 0H1163.5ZM1195.5 42C1184.45 42 1175.5 50.9543 1175.5 62V273C1175.5 284.046 1184.45 293 1195.5 293H1406.5C1417.55 293 1426.5 284.046 1426.5 273V62C1426.5 50.9543 1417.55 42 1406.5 42H1301H1195.5Z" fill="#2E43CD"/>
</svg>
